<?xml version="1.0" encoding="UTF-8" standalone="no"?>
<svg width="213px" height="50px" viewBox="0 0 213 50" version="1.1" xmlns="http://www.w3.org/2000/svg" xmlns:xlink="http://www.w3.org/1999/xlink" xmlns:sketch="http://www.bohemiancoding.com/sketch/ns">
    <!-- Generator: Sketch 3.4.4 (17249) - http://www.bohemiancoding.com/sketch -->
    <title>Logo</title>
    <desc>Created with Sketch.</desc>
    <defs>
        <path id="path-1" d="M0,0.0726368159 L213.592289,0.0726368159 L213.592289,50 L0,50 L0,0.0726368159 Z"></path>
    </defs>
    <g id="High-Fidelity" stroke="none" stroke-width="1" fill="none" fill-rule="evenodd" sketch:type="MSPage">
        <g id="Home" sketch:type="MSArtboardGroup" transform="translate(-159.000000, -13.000000)">
            <g id="Logo" sketch:type="MSLayerGroup" transform="translate(159.000000, 13.000000)">
                <path d="M125.751791,40.6035323 C125.751791,41.6547761 125.365721,42.5664677 124.593831,43.3383582 C123.82194,44.1104975 122.888358,44.4963184 121.793582,44.4963184 C120.588856,44.4963184 119.592338,44.1077612 118.80403,43.3301493 C118.015721,42.5527861 117.621443,41.5948259 117.621443,40.4557711 C117.621443,39.3281592 117.999055,38.3674627 118.754776,37.5734328 C119.510249,36.7796517 120.479403,36.3826368 121.661741,36.3826368 C122.384627,36.3826368 123.052537,36.5550249 123.665721,36.899801 C124.278905,37.2448259 124.766219,37.7075124 125.127662,38.2876119 L119.559502,42.0654726 L119.165224,41.5391045 L124.176667,38.1587562 C123.552289,37.3689552 122.714478,36.9736816 121.662985,36.9736816 C120.688109,36.9736816 119.880149,37.3214428 119.239353,38.0164677 C118.598806,38.7122388 118.278408,39.5358706 118.278408,40.4888557 C118.278408,41.430398 118.601045,42.2353731 119.247562,42.9030348 C119.893333,43.571194 120.698308,43.9050249 121.661741,43.9050249 C122.592338,43.9050249 123.394826,43.579403 124.068209,42.9279104 C124.741592,42.2764179 125.078159,41.5015423 125.078159,40.6035323 L125.751791,40.6035323 Z" id="Fill-1" fill="#221F20" sketch:type="MSShapeGroup"></path>
                <path d="M121.663085,37.6135572 C120.86806,37.6135572 120.229005,37.8871891 119.709602,38.4503731 C119.177264,39.0284826 118.918308,39.6956468 118.918308,40.4889303 C118.918308,40.6354478 118.927512,40.7777363 118.94592,40.9150498 L123.170796,38.0655473 C122.753632,37.7623134 122.255373,37.6135572 121.663085,37.6135572 M121.793433,45.136194 C120.420299,45.136194 119.263333,44.6819652 118.354627,43.7856965 C117.443682,42.8871891 116.981741,41.766791 116.981741,40.4558458 C116.981741,39.1633085 117.422289,38.0451493 118.291194,37.1322139 C119.169055,36.2100746 120.302886,35.7426617 121.661841,35.7426617 C122.492438,35.7426617 123.272289,35.944403 123.979502,36.3419154 C124.684478,36.7389303 125.253632,37.2797264 125.670796,37.9493781 L125.996169,38.4717662 L119.879005,42.6220149 C120.370299,43.054602 120.955622,43.2652985 121.661841,43.2652985 C122.427264,43.2652985 123.068806,43.0043532 123.623284,42.4680348 C124.171791,41.9374378 124.438209,41.3274876 124.438209,40.603607 L124.438209,39.9635572 L126.391692,39.9635572 L126.391692,40.603607 C126.391692,41.8252488 125.938955,42.8976368 125.046667,43.7906716 C124.153881,44.6834577 123.059353,45.136194 121.793433,45.136194" id="Fill-3" fill="#221F20" sketch:type="MSShapeGroup"></path>
                <path d="M133.389428,44.3320647 L132.765299,44.3320647 L132.765299,39.6676368 C132.765299,38.8788308 132.524005,38.2330597 132.042413,37.7290796 C131.560572,37.2258458 130.969279,36.973607 130.268781,36.973607 C129.567786,36.973607 128.976493,37.2258458 128.4949,37.7290796 C128.012562,38.2330597 127.772015,38.8788308 127.772015,39.6676368 L127.772015,44.3320647 L127.147886,44.3320647 L127.147886,39.5852985 C127.147886,38.6437562 127.446144,37.874602 128.043159,37.2773383 C128.639677,36.6808209 129.381716,36.3825622 130.268781,36.3825622 C131.166294,36.3825622 131.91107,36.6780846 132.502363,37.2693781 C133.093905,37.8606716 133.389428,38.6325622 133.389428,39.5852985 L133.389428,44.3320647 Z" id="Fill-5" fill="#221F20" sketch:type="MSShapeGroup"></path>
                <path d="M134.029229,44.9719154 L132.125498,44.9719154 L132.125498,39.6674378 C132.125498,39.044801 131.947139,38.5554975 131.579975,38.1714179 C131.220771,37.7960448 130.791667,37.6134577 130.268781,37.6134577 C129.745398,37.6134577 129.316542,37.7960448 128.95709,38.1714179 C128.590174,38.555 128.411816,39.0443035 128.411816,39.6674378 L128.411816,44.9719154 L126.508085,44.9719154 L126.508085,39.5853483 C126.508085,38.4726617 126.872015,37.543806 127.590423,36.8251493 C128.308831,36.1067413 129.209826,35.7425622 130.268781,35.7425622 C131.338184,35.7425622 132.241915,36.104005 132.954851,36.8169403 C133.667786,37.5298756 134.029229,38.4614677 134.029229,39.5853483 L134.029229,44.9719154 Z" id="Fill-7" fill="#221F20" sketch:type="MSShapeGroup"></path>
                <path d="M138.743557,44.3320647 L137.626642,44.3320647 C136.89306,44.3320647 136.331866,44.1380348 135.94306,43.7499751 C135.554254,43.3619154 135.360224,42.8126617 135.360224,42.1019652 L135.360224,34.4114179 L135.984104,34.4114179 L135.984104,36.5467413 L138.743557,36.5467413 L138.743557,37.1380348 L135.984104,37.1380348 L135.984104,42.1639055 C135.984104,42.645995 136.12092,43.0293284 136.394801,43.3136567 C136.668433,43.5987313 137.035597,43.7407711 137.495299,43.7407711 L138.743557,43.7407711 L138.743557,44.3320647 Z" id="Fill-9" fill="#221F20" sketch:type="MSShapeGroup"></path>
                <path d="M139.383333,44.9719154 L137.626617,44.9719154 C136.720647,44.9719154 136.00199,44.7129602 135.491045,44.2025124 C134.979851,43.6925622 134.720398,42.9858458 134.720398,42.1020149 L134.720398,33.7716667 L136.624129,33.7716667 L136.624129,35.90699 L139.383333,35.90699 L139.383333,37.7778856 L136.624129,37.7778856 L136.624129,42.1639552 C136.624129,42.4771393 136.7,42.7079851 136.85597,42.8699254 C136.951493,42.9694279 137.120896,43.1010199 137.495274,43.1010199 L139.383333,43.1010199 L139.383333,44.9719154 Z" id="Fill-11" fill="#221F20" sketch:type="MSShapeGroup"></path>
                <path d="M147.728259,40.6035323 C147.728259,41.6547761 147.34194,42.5664677 146.570299,43.3383582 C145.798159,44.1104975 144.864577,44.4963184 143.769801,44.4963184 C142.565075,44.4963184 141.568806,44.1077612 140.780498,43.3301493 C139.99194,42.5527861 139.597662,41.5948259 139.597662,40.4557711 C139.597662,39.3281592 139.975522,38.3674627 140.731244,37.5734328 C141.486716,36.7796517 142.455871,36.3826368 143.638209,36.3826368 C144.361095,36.3826368 145.028756,36.5550249 145.642189,36.899801 C146.255373,37.2448259 146.742687,37.7075124 147.104129,38.2876119 L141.535721,42.0654726 L141.141443,41.5391045 L146.152886,38.1587562 C145.528507,37.3689552 144.690697,36.9736816 143.639453,36.9736816 C142.664328,36.9736816 141.856368,37.3214428 141.215821,38.0164677 C140.575025,38.7122388 140.254627,39.5358706 140.254627,40.4888557 C140.254627,41.430398 140.577512,42.2353731 141.22403,42.9030348 C141.869801,43.571194 142.674776,43.9050249 143.638209,43.9050249 C144.568806,43.9050249 145.371294,43.579403 146.044677,42.9279104 C146.717811,42.2764179 147.054627,41.5015423 147.054627,40.6035323 L147.728259,40.6035323 Z" id="Fill-13" fill="#221F20" sketch:type="MSShapeGroup"></path>
                <path d="M143.639403,37.6135572 C142.844378,37.6135572 142.205323,37.8871891 141.68592,38.4503731 C141.153582,39.0284826 140.894627,39.6956468 140.894627,40.4889303 C140.894627,40.6354478 140.903831,40.7777363 140.922239,40.9150498 L145.147114,38.0655473 C144.72995,37.7623134 144.231692,37.6135572 143.639403,37.6135572 M143.769751,45.136194 C142.396617,45.136194 141.239652,44.6819652 140.330945,43.7856965 C139.42,42.8871891 138.95806,41.766791 138.95806,40.4558458 C138.95806,39.1633085 139.398607,38.0451493 140.267512,37.1322139 C141.145373,36.2100746 142.279204,35.7426617 143.638159,35.7426617 C144.468756,35.7426617 145.248607,35.944403 145.955821,36.3419154 C146.660796,36.7389303 147.22995,37.2797264 147.647114,37.9493781 L147.972488,38.4717662 L141.855323,42.6220149 C142.346617,43.054602 142.93194,43.2652985 143.638159,43.2652985 C144.403582,43.2652985 145.045124,43.0043532 145.599602,42.4680348 C146.148109,41.9374378 146.414527,41.3274876 146.414527,40.603607 L146.414527,39.9635572 L148.368259,39.9635572 L148.368259,40.603607 C148.368259,41.8252488 147.915522,42.8973881 147.022985,43.7906716 C146.130199,44.6834577 145.035672,45.136194 143.769751,45.136194" id="Fill-15" fill="#221F20" sketch:type="MSShapeGroup"></path>
                <path d="M152.803085,37.1379602 L152.146119,37.1379602 C151.511542,37.1379602 150.952836,37.4334826 150.470995,38.0250249 C149.989154,38.6163184 149.748109,39.3610945 149.748109,40.258607 L149.748109,44.33199 L149.124478,44.33199 L149.124478,36.5466667 L149.748109,36.5466667 L149.748109,38.0414428 C149.956567,37.6252736 150.274229,37.2722886 150.701095,36.9817413 C151.12796,36.6919403 151.588159,36.5466667 152.080945,36.5466667 L152.803085,36.5466667 L152.803085,37.1379602 Z" id="Fill-17" fill="#221F20" sketch:type="MSShapeGroup"></path>
                <path d="M150.388109,44.9719154 L148.484627,44.9719154 L148.484627,35.90699 L150.388109,35.90699 L150.388109,36.4214179 C150.909502,36.0798756 151.478408,35.90699 152.080896,35.90699 L153.442836,35.90699 L153.442836,37.7778856 L152.14607,37.7778856 C151.709751,37.7778856 151.324179,37.9908209 150.966965,38.4293781 C150.577413,38.9072388 150.388109,39.5054975 150.388109,40.2587313 L150.388109,44.9719154 Z" id="Fill-19" fill="#221F20" sketch:type="MSShapeGroup"></path>
                <path d="M157.106816,44.3320647 L155.989652,44.3320647 C155.25607,44.3320647 154.695124,44.1380348 154.30607,43.7499751 C153.917264,43.3619154 153.723483,42.8126617 153.723483,42.1019652 L153.723483,34.4114179 L154.347114,34.4114179 L154.347114,36.5467413 L157.106816,36.5467413 L157.106816,37.1380348 L154.347114,37.1380348 L154.347114,42.1639055 C154.347114,42.645995 154.484179,43.0293284 154.757811,43.3136567 C155.031443,43.5987313 155.398607,43.7407711 155.858557,43.7407711 L157.106816,43.7407711 L157.106816,44.3320647 Z" id="Fill-21" fill="#221F20" sketch:type="MSShapeGroup"></path>
                <path d="M157.746592,44.9719154 L155.989876,44.9719154 C155.084154,44.9719154 154.365498,44.713209 153.854303,44.2027612 C153.342861,43.6925622 153.083657,42.9858458 153.083657,42.1020149 L153.083657,33.7716667 L154.986891,33.7716667 L154.986891,35.90699 L157.746592,35.90699 L157.746592,37.7778856 L154.986891,37.7778856 L154.986891,42.1639552 C154.986891,42.4766418 155.06301,42.7077363 155.219229,42.8701741 C155.314502,42.9694279 155.483905,43.1010199 155.858532,43.1010199 L157.746592,43.1010199 L157.746592,44.9719154 Z" id="Fill-23" fill="#221F20" sketch:type="MSShapeGroup"></path>
                <path d="M165.48296,44.3320647 L164.85908,44.3320647 L164.85908,40.4392786 C164.85908,39.4977363 164.560323,38.684801 163.963557,38.0002239 C163.36704,37.3161443 162.608582,36.973607 161.68893,36.973607 C160.867537,36.973607 160.139428,37.3079353 159.504851,37.975597 C158.869527,38.6437562 158.551866,39.4649005 158.551866,40.4392786 C158.551866,41.4141542 158.869527,42.2355473 159.504851,42.9029602 C160.139428,43.5711194 160.867537,43.905199 161.68893,43.905199 C162.181716,43.905199 162.619527,43.8121642 163.002861,43.6258458 C163.386443,43.4397761 163.758333,43.155199 164.120025,42.7716169 L164.120025,43.5109204 C163.769279,43.8064428 163.410572,44.0445025 163.043905,44.2250995 C162.676741,44.4059453 162.225249,44.4962438 161.68893,44.4962438 C160.626741,44.4962438 159.728731,44.1131592 158.995149,43.3464925 C158.261318,42.5803234 157.8949,41.6111692 157.8949,40.4392786 C157.8949,39.2790796 158.25908,38.3124129 158.987189,37.5405224 C159.715547,36.7683831 160.615796,36.3825622 161.68893,36.3825622 C162.751119,36.3825622 163.649129,36.7658955 164.382711,37.5323134 C165.116542,38.2989801 165.48296,39.2678856 165.48296,40.4392786 L165.48296,44.3320647 Z" id="Fill-25" fill="#221F20" sketch:type="MSShapeGroup"></path>
                <path d="M161.68903,37.6135572 C161.044751,37.6135572 160.482065,37.8762438 159.968383,38.4165423 C159.445746,38.9660448 159.191766,39.6277363 159.191766,40.4391791 C159.191766,41.2513682 159.445498,41.9128109 159.968134,42.4618159 C160.481567,43.0026119 161.044502,43.2652985 161.68903,43.2652985 C162.081816,43.2652985 162.429826,43.1929104 162.723358,43.0501244 C163.034303,42.8996269 163.347488,42.6580846 163.654453,42.3327114 L164.219378,41.7339552 L164.219378,40.4391791 C164.219378,39.6508706 163.977836,38.9906716 163.48107,38.4207711 C163.007687,37.8777363 162.421368,37.6135572 161.68903,37.6135572 M161.68903,45.136194 C160.450473,45.136194 159.388532,44.6827114 158.532811,43.7889303 C157.684801,42.9033582 157.25495,41.7764925 157.25495,40.4391791 C157.25495,39.1155473 157.681318,37.9924129 158.521866,37.1013682 C159.372363,36.1998756 160.438035,35.7426617 161.68903,35.7426617 C162.927338,35.7426617 163.98903,36.1958955 164.845,37.0896766 C165.69301,37.9757463 166.122861,39.1026119 166.122861,40.4391791 L166.122861,44.9720149 L164.219378,44.9720149 L164.219378,44.2483831 C163.927587,44.465796 163.628831,44.6503731 163.326841,44.7991294 C162.872861,45.0227612 162.321617,45.136194 161.68903,45.136194" id="Fill-27" fill="#221F20" sketch:type="MSShapeGroup"></path>
                <mask id="mask-2" sketch:name="Clip 30" fill="white">
                    <use xlink:href="#path-1"></use>
                </mask>
                <g id="Clip-30"></g>
                <path d="M168.636816,44.3320896 L168.012438,44.3320896 L168.012438,36.5467662 L168.636816,36.5467662 L168.636816,44.3320896 Z M168.817413,34.3293532 C168.817413,34.4718905 168.770896,34.5895522 168.678109,34.6823383 C168.584328,34.7756219 168.466667,34.8221393 168.324627,34.8221393 C168.182338,34.8221393 168.064428,34.7756219 167.971393,34.6823383 C167.878607,34.5895522 167.83209,34.4718905 167.83209,34.3293532 C167.83209,34.1873134 167.878607,34.069403 167.971393,33.9761194 C168.064428,33.8833333 168.182338,33.8365672 168.324627,33.8365672 C168.466667,33.8365672 168.584328,33.8833333 168.678109,33.9761194 C168.770896,34.069403 168.817413,34.1873134 168.817413,34.3293532 L168.817413,34.3293532 Z" id="Fill-29" fill="#221F20" sketch:type="MSShapeGroup" mask="url(#mask-2)"></path>
                <path d="M168.177587,34.3295771 C168.178085,34.3477363 168.192264,34.395 168.224851,34.4280846 C168.260174,34.4629104 168.307189,34.4763433 168.324851,34.476592 C168.342761,34.4763433 168.390274,34.4621642 168.423607,34.4288308 C168.457438,34.395 168.471617,34.3477363 168.471866,34.3295771 L168.817388,34.3295771 L168.471866,34.3295771 C168.471617,34.3111692 168.457189,34.2629104 168.423358,34.2293284 C168.391269,34.1972388 168.34301,34.1825622 168.324602,34.1823134 C168.30694,34.1825622 168.259179,34.1964925 168.226095,34.2293284 C168.192761,34.2629104 168.178085,34.3109204 168.177587,34.3293284 L168.177587,34.3295771 L168.177587,34.3295771 Z M168.324851,35.4619154 C168.010672,35.4619154 167.731567,35.3484826 167.518134,35.1335572 C167.305199,34.9216169 167.192015,34.64301 167.192015,34.3295771 C167.192015,34.0168905 167.30495,33.7385323 167.518632,33.5243532 C167.733308,33.3096766 168.011915,33.1967413 168.324851,33.1967413 C168.636045,33.1967413 168.913905,33.3091791 169.128333,33.5216169 C169.344502,33.7382836 169.457438,34.0166418 169.457438,34.3295771 C169.457438,34.64301 169.344005,34.9218657 169.129826,35.1355473 C168.915896,35.3489801 168.637537,35.4619154 168.324851,35.4619154 L168.324851,35.4619154 Z M169.276841,44.9718657 L167.372861,44.9718657 L167.372861,35.9069403 L169.276841,35.9069403 L169.276841,44.9718657 Z" id="Fill-31" fill="#221F20" sketch:type="MSShapeGroup" mask="url(#mask-2)"></path>
                <path d="M177.374801,44.3320647 L176.750423,44.3320647 L176.750423,39.6676368 C176.750423,38.8788308 176.509378,38.2330597 176.027537,37.7290796 C175.545697,37.2258458 174.954652,36.973607 174.254154,36.973607 C173.55291,36.973607 172.961866,37.2258458 172.480025,37.7290796 C171.997935,38.2330597 171.757139,38.8788308 171.757139,39.6676368 L171.757139,44.3320647 L171.133259,44.3320647 L171.133259,39.5852985 C171.133259,38.6437562 171.431517,37.874602 172.028284,37.2773383 C172.624801,36.6808209 173.36709,36.3825622 174.254154,36.3825622 C175.151418,36.3825622 175.896443,36.6780846 176.487736,37.2693781 C177.07903,37.8606716 177.374801,38.6325622 177.374801,39.5852985 L177.374801,44.3320647 Z" id="Fill-32" fill="#221F20" sketch:type="MSShapeGroup" mask="url(#mask-2)"></path>
                <path d="M178.014627,44.9719154 L176.110647,44.9719154 L176.110647,39.6674378 C176.110647,39.0445522 175.932289,38.5552488 175.565124,38.1716667 C175.20592,37.7960448 174.776816,37.6134577 174.254179,37.6134577 C173.730796,37.6134577 173.301692,37.7960448 172.941741,38.1716667 C172.575323,38.5552488 172.396965,39.0445522 172.396965,39.6674378 L172.396965,44.9719154 L170.493483,44.9719154 L170.493483,39.5853483 C170.493483,38.4726617 170.857662,37.5440547 171.575572,36.8251493 C172.29398,36.1067413 173.194975,35.7425622 174.254179,35.7425622 C175.323582,35.7425622 176.227313,36.104005 176.940249,36.8169403 C177.653184,37.5301244 178.014627,38.4617164 178.014627,39.5853483 L178.014627,44.9719154 Z" id="Fill-33" fill="#221F20" sketch:type="MSShapeGroup" mask="url(#mask-2)"></path>
                <path d="M189.282935,44.3320647 L188.658557,44.3320647 L188.658557,39.1748507 C188.658557,38.4741045 188.461791,37.9320647 188.067264,37.5484826 C187.672985,37.165398 187.196617,36.973607 186.63791,36.973607 C186.068507,36.973607 185.587413,37.1626617 185.192886,37.5405224 C184.798607,37.9181343 184.601841,38.4631592 184.601841,39.1748507 L184.601841,44.3320647 L183.977463,44.3320647 L183.977463,39.1748507 C183.977463,38.4741045 183.780448,37.9320647 183.386169,37.5484826 C182.991891,37.165398 182.515522,36.973607 181.956816,36.973607 C181.409801,36.973607 180.935672,37.165398 180.536667,37.5484826 C180.136915,37.9320647 179.936915,38.4741045 179.936915,39.1748507 L179.936915,44.3320647 L179.312537,44.3320647 L179.312537,39.1748507 C179.312537,38.2989801 179.564279,37.614403 180.068507,37.1216169 C180.571741,36.6288308 181.201592,36.3825622 181.956816,36.3825622 C182.570498,36.3825622 183.068507,36.5111692 183.45209,36.7683831 C183.834925,37.0258458 184.109055,37.4064428 184.273234,37.9099254 C184.459303,37.4064428 184.743632,37.0258458 185.127214,36.7683831 C185.510547,36.5111692 186.014279,36.3825622 186.63791,36.3825622 C187.404328,36.3825622 188.037164,36.6260945 188.535423,37.1131592 C189.033433,37.6007214 189.282935,38.2877861 189.282935,39.1748507 L189.282935,44.3320647 Z" id="Fill-34" fill="#221F20" sketch:type="MSShapeGroup" mask="url(#mask-2)"></path>
                <path d="M189.922861,44.9719154 L188.018632,44.9719154 L188.018632,39.1746517 C188.018632,38.6492786 187.888532,38.2671891 187.621368,38.0072388 C187.345,37.7388308 187.032313,37.6134577 186.638035,37.6134577 C186.23107,37.6134577 185.912662,37.7370896 185.635796,38.0025124 C185.370373,38.2564925 185.241766,38.6398259 185.241766,39.1746517 L185.241766,44.9719154 L183.337537,44.9719154 L183.337537,39.1746517 C183.337537,38.6492786 183.207687,38.2674378 182.940274,38.0072388 C182.663657,37.7388308 182.351219,37.6134577 181.95694,37.6134577 C181.577338,37.6134577 181.257935,37.7433085 180.979826,38.0102239 C180.708433,38.2704229 180.576841,38.6512687 180.576841,39.1746517 L180.576841,44.9719154 L178.672612,44.9719154 L178.672612,39.1746517 C178.672612,38.1241542 178.992015,37.2793781 179.621368,36.664204 C180.245498,36.0527612 181.031318,35.7425622 181.95694,35.7425622 C182.696741,35.7425622 183.319627,35.9089801 183.808682,36.2370896 C183.986294,36.3564925 184.145995,36.4955473 184.287786,36.6535075 C184.432065,36.4950498 184.593259,36.3562438 184.770622,36.2370896 C185.259677,35.9089801 185.887786,35.7425622 186.638035,35.7425622 C187.574353,35.7425622 188.363159,36.0497761 188.982811,36.6557463 C189.606692,37.266194 189.922861,38.1137065 189.922861,39.1746517 L189.922861,44.9719154 Z" id="Fill-35" fill="#221F20" sketch:type="MSShapeGroup" mask="url(#mask-2)"></path>
                <path d="M199.006318,40.6035323 C199.006318,41.6547761 198.619751,42.5664677 197.848109,43.3383582 C197.076468,44.1104975 196.142886,44.4963184 195.048109,44.4963184 C193.843383,44.4963184 192.846866,44.1077612 192.058308,43.3301493 C191.270249,42.5527861 190.87597,41.5948259 190.87597,40.4557711 C190.87597,39.3281592 191.253333,38.3674627 192.009303,37.5734328 C192.764776,36.7796517 193.73393,36.3826368 194.916269,36.3826368 C195.639154,36.3826368 196.307065,36.5550249 196.92,36.899801 C197.533433,37.2448259 198.020746,37.7075124 198.38194,38.2876119 L192.813781,42.0654726 L192.419502,41.5391045 L197.430945,38.1587562 C196.806567,37.3689552 195.969005,36.9736816 194.917512,36.9736816 C193.942388,36.9736816 193.134428,37.3214428 192.493632,38.0164677 C191.853085,38.7122388 191.532935,39.5358706 191.532935,40.4888557 C191.532935,41.430398 191.855323,42.2353731 192.50209,42.9030348 C193.147612,43.571194 193.952587,43.9050249 194.916269,43.9050249 C195.846866,43.9050249 196.649353,43.579403 197.322736,42.9279104 C197.996119,42.2764179 198.332438,41.5015423 198.332438,40.6035323 L199.006318,40.6035323 Z" id="Fill-36" fill="#221F20" sketch:type="MSShapeGroup" mask="url(#mask-2)"></path>
                <path d="M194.917662,37.6135572 C194.122139,37.6135572 193.483085,37.8871891 192.964179,38.4501244 C192.431841,39.0282338 192.172886,39.6951493 192.172886,40.4889303 C192.172886,40.6354478 192.18209,40.7774876 192.200498,40.9150498 L196.424876,38.0655473 C196.00796,37.7623134 195.509701,37.6135572 194.917662,37.6135572 M195.04801,45.136194 C193.675124,45.136194 192.518159,44.6819652 191.608955,43.7859453 C190.697761,42.8869403 190.23607,41.766791 190.23607,40.4558458 C190.23607,39.1633085 190.676617,38.0451493 191.545771,37.1319652 C192.423632,36.2100746 193.557463,35.7426617 194.916418,35.7426617 C195.747015,35.7426617 196.526866,35.944403 197.233831,36.3421642 C197.939055,36.7386816 198.508209,37.2794776 198.925124,37.9496269 L199.250498,38.4717662 L193.133085,42.6217662 C193.624627,43.054602 194.210199,43.2652985 194.916418,43.2652985 C195.681841,43.2652985 196.323383,43.0043532 196.877612,42.4680348 C197.426119,41.9374378 197.692537,41.3277363 197.692537,40.603607 L197.692537,39.9635572 L199.646269,39.9635572 L199.646269,40.603607 C199.646269,41.8252488 199.193284,42.8976368 198.300746,43.7906716 C197.408458,44.6834577 196.31393,45.136194 195.04801,45.136194" id="Fill-37" fill="#221F20" sketch:type="MSShapeGroup" mask="url(#mask-2)"></path>
                <path d="M206.643333,44.3320647 L206.019453,44.3320647 L206.019453,39.6676368 C206.019453,38.8788308 205.77791,38.2330597 205.296816,37.7290796 C204.814726,37.2258458 204.222935,36.973607 203.522687,36.973607 C202.822189,36.973607 202.230398,37.2258458 201.749055,37.7290796 C201.266468,38.2330597 201.026169,38.8788308 201.026169,39.6676368 L201.026169,44.3320647 L200.401791,44.3320647 L200.401791,39.5852985 C200.401791,38.6437562 200.70005,37.874602 201.297313,37.2773383 C201.89408,36.6808209 202.635622,36.3825622 203.522687,36.3825622 C204.420448,36.3825622 205.164975,36.6780846 205.756269,37.2693781 C206.34806,37.8606716 206.643333,38.6325622 206.643333,39.5852985 L206.643333,44.3320647 Z" id="Fill-38" fill="#221F20" sketch:type="MSShapeGroup" mask="url(#mask-2)"></path>
                <path d="M207.283085,44.9719154 L205.379851,44.9719154 L205.379851,39.6674378 C205.379851,39.0450498 205.201244,38.5557463 204.833831,38.1711692 C204.475124,37.7960448 204.045771,37.6134577 203.522637,37.6134577 C202.999254,37.6134577 202.570398,37.7960448 202.211443,38.1714179 C201.844527,38.5547512 201.666169,39.0440547 201.666169,39.6674378 L201.666169,44.9719154 L199.76194,44.9719154 L199.76194,39.5853483 C199.76194,38.4724129 200.126119,37.5435572 200.845025,36.8251493 C201.563184,36.1067413 202.46393,35.7425622 203.522637,35.7425622 C204.59204,35.7425622 205.495771,36.104005 206.208706,36.8169403 C206.921642,37.5293781 207.283085,38.4607214 207.283085,39.5853483 L207.283085,44.9719154 Z" id="Fill-39" fill="#221F20" sketch:type="MSShapeGroup" mask="url(#mask-2)"></path>
                <path d="M211.997761,44.3320647 L210.881343,44.3320647 C210.147512,44.3320647 209.58607,44.1380348 209.197761,43.7499751 C208.808706,43.3619154 208.614428,42.8126617 208.614428,42.1019652 L208.614428,34.4114179 L209.238806,34.4114179 L209.238806,36.5467413 L211.997761,36.5467413 L211.997761,37.1380348 L209.238806,37.1380348 L209.238806,42.1639055 C209.238806,42.645995 209.375124,43.0293284 209.649254,43.3136567 C209.922886,43.5987313 210.29005,43.7407711 210.749502,43.7407711 L211.997761,43.7407711 L211.997761,44.3320647 Z" id="Fill-40" fill="#221F20" sketch:type="MSShapeGroup" mask="url(#mask-2)"></path>
                <path d="M212.637662,44.9719154 L210.881194,44.9719154 C209.974975,44.9719154 209.256318,44.7129602 208.745373,44.2025124 C208.23393,43.6920647 207.974478,42.9853483 207.974478,42.1020149 L207.974478,33.7716667 L209.878458,33.7716667 L209.878458,35.90699 L212.637662,35.90699 L212.637662,37.7778856 L209.878458,37.7778856 L209.878458,42.1639552 C209.878458,42.4771393 209.954328,42.7079851 210.11005,42.8696766 C210.20607,42.9694279 210.375473,43.1010199 210.749602,43.1010199 L212.637662,43.1010199 L212.637662,44.9719154 Z" id="Fill-41" fill="#221F20" sketch:type="MSShapeGroup" mask="url(#mask-2)"></path>
                <path d="M25.381393,5.77159204 L24.0435821,11.9188557 L15.7920896,11.9188557 L11.5731841,31.2681095 L3.6861194,31.2681095 L7.88736318,11.9188557 L4.97512438e-05,11.9188557 L1.35527363,5.77159204 L25.381393,5.77159204 Z" id="Fill-42" fill="#221F20" sketch:type="MSShapeGroup" mask="url(#mask-2)"></path>
                <path d="M39.2491294,12.7109204 L36.6491294,18.1539552 C36.105597,18.0270896 35.6202736,17.963408 35.1929104,17.963408 C33.8406716,17.963408 32.7426617,18.4487313 31.8993781,19.4193781 C31.055597,20.3902736 30.4023632,21.9445025 29.9404229,24.0825622 L28.4466418,31.2681343 L21.374005,31.2681343 L25.3436567,11.9188806 L31.9481343,11.9188806 L31.1192786,16.195 L31.1884328,16.264403 C32.286194,14.6350498 33.2513682,13.54301 34.0834577,12.9880348 C34.9155473,12.4335572 35.8282338,12.156194 36.8222637,12.156194 C37.5735075,12.156194 38.3824627,12.3410199 39.2491294,12.7109204" id="Fill-43" fill="#221F20" sketch:type="MSShapeGroup" mask="url(#mask-2)"></path>
                <path d="M51.695597,22.513607 C48.4480846,23.0568905 46.5411194,23.5362438 45.975199,23.9524129 C45.4087811,24.3685821 45.1256965,24.8598756 45.1256965,25.4260448 C45.1256965,26.0153483 45.3279353,26.4805224 45.7324129,26.8213184 C46.1368905,27.1623632 46.656791,27.3327612 47.2926119,27.3327612 C48.1824129,27.3327612 49.0635075,26.9718159 49.9361443,26.2494279 C50.8085323,25.5270398 51.3948507,24.2817662 51.695597,22.513607 L51.695597,22.513607 Z M40.2545522,17.3999254 C40.6821642,15.6549005 41.655796,14.3086318 43.1754478,13.3608706 C44.6950995,12.4133582 47.0498259,11.9394776 50.2393781,11.9394776 C53.8565423,11.9394776 56.2980846,12.3929602 57.5635075,13.3001741 C58.8289303,14.2076368 59.4615174,15.5277861 59.4615174,17.2611194 C59.4615174,18.4168408 59.143607,20.3180846 58.5082836,22.9643532 C57.9187313,25.4723134 57.624204,27.2173383 57.624204,28.1994279 C57.624204,29.0315174 57.8120149,30.4014179 58.1125124,31.2680846 L51.2306716,31.2680846 C51.0687313,30.5402239 50.9503234,29.3205721 50.9503234,28.6501741 C49.1010697,30.3374876 47.0381343,31.1810199 44.7617662,31.1810199 C42.4386318,31.1810199 40.7687313,30.6379851 39.7518159,29.5514179 C38.7349005,28.4653483 38.2264428,27.2056468 38.2264428,25.7725622 C38.2264428,24.143209 38.6799254,22.9009204 39.5871393,22.0456965 C40.4943532,21.1904726 41.6122637,20.6098756 42.9413682,20.303408 C44.2704726,19.9974378 46.0846517,19.7287811 48.3846517,19.4974378 C50.4301741,19.2780348 51.793607,19.0641045 52.4756965,18.8561443 C52.6142537,18.3128607 52.6836567,17.8969403 52.6836567,17.6078856 C52.6836567,17.1456965 52.4498259,16.775796 51.9816667,16.4984328 C51.5135075,16.2210697 50.8921144,16.0822637 50.1179851,16.0822637 C49.3090299,16.0822637 48.6533085,16.2123632 48.1505721,16.4725622 C47.6478358,16.7325124 47.205796,17.2785323 46.8244527,18.1106219 L40.2545522,17.3999254 Z" id="Fill-44" fill="#221F20" sketch:type="MSShapeGroup" mask="url(#mask-2)"></path>
                <path d="M71.5613184,26.5527114 C72.8670398,26.5527114 73.8695274,25.8218657 74.5690299,24.3596766 C75.2680348,22.8979851 75.6175373,21.404204 75.6175373,19.8788308 C75.6175373,18.8039552 75.3431592,17.9979851 74.7941542,17.4604229 C74.2451493,16.9231095 73.6182836,16.6544527 72.9133085,16.6544527 C71.8847015,16.6544527 71.0006219,17.3106716 70.2610697,18.6218657 C69.5215174,19.933806 69.1518657,21.5141542 69.1518657,23.3631592 C69.1518657,24.403209 69.3742537,25.195 69.8190299,25.7380348 C70.263806,26.2813184 70.8446517,26.5527114 71.5613184,26.5527114 L71.5613184,26.5527114 Z M88.2548507,0.0726119403 L80.4856965,31.2681343 L73.9503731,31.2681343 L74.3349502,28.9101741 L74.2655473,28.823607 C73.2715174,29.7482338 72.37301,30.3723632 71.5700249,30.6957463 C70.7665423,31.0191294 69.8103234,31.1810697 68.7011194,31.1810697 C66.6207711,31.1810697 65.0287313,30.4907711 63.9252488,29.1094279 C62.8215174,27.7285821 62.2697761,25.8708706 62.2697761,23.5362935 C62.2697761,20.4161443 63.0988806,17.6974876 64.7573383,15.3803234 C66.4155473,13.063408 68.5103234,11.9047015 71.0411692,11.9047015 C73.6297264,11.9047015 75.5829602,12.8698756 76.9003731,14.7994776 L81.1822139,0.0726119403 L88.2548507,0.0726119403 Z" id="Fill-45" fill="#221F20" sketch:type="MSShapeGroup" mask="url(#mask-2)"></path>
                <path d="M100.354453,19.9480597 C100.43505,19.6940796 100.475846,19.3413433 100.475846,18.8908458 C100.475846,17.9545274 100.195498,17.2468159 99.6350498,16.7672139 C99.0743532,16.2878607 98.3840547,16.0478109 97.5636567,16.0478109 C96.6967413,16.0478109 95.8994776,16.3744279 95.1713682,17.0271642 C94.4432587,17.6801493 93.8885323,18.6540299 93.5071891,19.9480597 L100.354453,19.9480597 Z M106.248234,26.0326368 C105.219627,27.8587562 103.876095,29.1731841 102.217886,29.9764179 C100.559428,30.779403 98.4823134,31.1811443 95.9860448,31.1811443 C92.3571891,31.1811443 89.7770896,30.3637313 88.245995,28.7281592 C86.7146517,27.0930846 85.9492289,25.0908458 85.9492289,22.7216915 C85.9492289,21.0808955 86.3071891,19.5351244 87.0238557,18.0846269 C87.7405224,16.6343781 88.7111692,15.4179602 89.9360448,14.4356219 C91.1611692,13.4535323 92.3688806,12.7918408 93.5591791,12.450796 C94.7494776,12.11 96.1420149,11.9393532 97.736791,11.9393532 C101.169129,11.9393532 103.630572,12.6848756 105.121617,14.1756716 C106.612413,15.6664677 107.357687,17.4983085 107.357687,19.6706965 C107.357687,20.3873632 107.201716,21.618209 106.889776,23.3632338 L92.8656468,23.3632338 C93.0621642,25.8244279 94.1658955,27.0555224 96.1768408,27.0555224 C97.5402736,27.0555224 98.626592,26.5005473 99.435796,25.3913433 L106.248234,26.0326368 Z" id="Fill-46" fill="#221F20" sketch:type="MSShapeGroup" mask="url(#mask-2)"></path>
                <path d="M72.6679602,40.085597 C72.3527861,40.085597 72.0970647,39.8301244 72.0970647,39.5147015 C72.0970647,39.1995274 72.3527861,38.943806 72.6679602,38.943806 C72.9831343,38.943806 73.2388557,39.1995274 73.2388557,39.5147015 C73.2388557,39.8301244 72.9831343,40.085597 72.6679602,40.085597 M71.6087562,41.1729104 C71.2935821,41.1729104 71.0378607,40.9171891 71.0378607,40.6020149 C71.0378607,40.286592 71.2935821,40.0311194 71.6087562,40.0311194 C71.9241791,40.0311194 72.1796517,40.286592 72.1796517,40.6020149 C72.1796517,40.9171891 71.9241791,41.1729104 71.6087562,41.1729104 M70.5470647,40.085597 C70.2318905,40.085597 69.9761692,39.8301244 69.9761692,39.5147015 C69.9761692,39.1995274 70.2318905,38.943806 70.5470647,38.943806 C70.8624876,38.943806 71.1179602,39.1995274 71.1179602,39.5147015 C71.1179602,39.8301244 70.8624876,40.085597 70.5470647,40.085597 M69.0445771,43.496791 C68.2769154,43.496791 67.6545274,42.874403 67.6545274,42.1067413 C67.6545274,41.3390796 68.2769154,40.7166915 69.0445771,40.7166915 C69.8122388,40.7166915 70.4346269,41.3390796 70.4346269,42.1067413 C70.4346269,42.874403 69.8122388,43.496791 69.0445771,43.496791 M71.6087562,37.814204 C71.9241791,37.814204 72.1796517,38.0696766 72.1796517,38.3850995 C72.1796517,38.7002736 71.9241791,38.955995 71.6087562,38.955995 C71.2935821,38.955995 71.0378607,38.7002736 71.0378607,38.3850995 C71.0378607,38.0696766 71.2935821,37.814204 71.6087562,37.814204 M64.5575124,43.6532587 C63.7032836,43.6532587 63.010995,42.9609701 63.010995,42.1067413 C63.010995,41.2527612 63.7032836,40.5602239 64.5575124,40.5602239 C65.4114925,40.5602239 66.1040299,41.2527612 66.1040299,42.1067413 C66.1040299,42.9609701 65.4114925,43.6532587 64.5575124,43.6532587 M62.6985572,40.5224129 C61.9308955,40.5224129 61.3085075,39.9000249 61.3085075,39.1323632 C61.3085075,38.3647015 61.9308955,37.7423134 62.6985572,37.7423134 C63.4662189,37.7423134 64.0883582,38.3647015 64.0883582,39.1323632 C64.0883582,39.9000249 63.4662189,40.5224129 62.6985572,40.5224129 M74.1465672,39.3965423 C74.1465672,39.3965423 73.9012935,36.7303731 71.4789055,36.6420647 L70.4448259,36.6420647 L69.100796,37.3472886 L67.0751741,37.464204 L65.0493035,37.3472886 L63.7052736,36.6420647 L62.671194,36.6420647 C60.248806,36.7303731 60.0035323,39.3965423 60.0035323,39.3965423 C58.5490547,42.6134577 58.681393,46.5915672 58.681393,46.5915672 C58.681393,48.4099751 59.6062687,48.496791 59.6062687,48.496791 C60.9276617,48.5629602 62.9341294,45.8306219 62.9341294,45.8306219 C63.5289055,44.8612189 65.4679602,44.6848507 65.4679602,44.6848507 L66.809005,44.6848507 L67.3410945,44.6848507 L68.6821393,44.6848507 C68.6821393,44.6848507 70.621194,44.8612189 71.2159701,45.8306219 C71.2159701,45.8306219 73.2224378,48.5629602 74.5438308,48.496791 C74.5438308,48.496791 75.4687065,48.4099751 75.4687065,46.5915672 C75.4687065,46.5915672 75.6010448,42.6134577 74.1465672,39.3965423" id="Fill-47" fill="#1B75BB" sketch:type="MSShapeGroup" mask="url(#mask-2)"></path>
                <path d="M37.0253483,44.1386816 C35.6576866,44.1386816 34.5489801,43.0299751 34.5489801,41.6623134 C34.5489801,40.2946517 35.6576866,39.1859453 37.0253483,39.1859453 C38.39301,39.1859453 39.5017164,40.2946517 39.5017164,41.6623134 C39.5017164,43.0299751 38.39301,44.1386816 37.0253483,44.1386816 M42.4840547,37.6307214 L41.8601741,41.6623134 L41.1636567,43.104602 L41.4539552,43.2491294 L40.6549502,44.8541045 L40.383806,44.7192786 L40.2711194,44.9523632 L40.0852985,44.8197761 L40.1576866,44.606592 L40.0843035,44.5702736 L40.0223632,44.5449005 L40.0241045,44.5401741 L39.8586816,44.4578358 L40.6576866,42.8528607 L40.7382836,42.8929104 L41.1932587,41.5503731 L41.3877861,36.4662935 C40.2076866,35.47301 38.6887811,34.8700249 37.0253483,34.8700249 C33.2741045,34.8700249 30.2330597,37.9110697 30.2330597,41.6623134 C30.2330597,45.4135572 33.2741045,48.454602 37.0253483,48.454602 C40.776592,48.454602 43.8176368,45.4135572 43.8176368,41.6623134 C43.8176368,40.1508706 43.3196269,38.7583333 42.4840547,37.6307214" id="Fill-48" fill="#1B75BB" sketch:type="MSShapeGroup" mask="url(#mask-2)"></path>
                <path d="M37.0253731,41.1998507 C36.7699005,41.1998507 36.5629353,41.4068159 36.5629353,41.6622886 C36.5629353,41.9177612 36.7699005,42.1247264 37.0253731,42.1247264 C37.2808458,42.1247264 37.4878109,41.9177612 37.4878109,41.6622886 C37.4878109,41.4068159 37.2808458,41.1998507 37.0253731,41.1998507" id="Fill-49" fill="#1B75BB" sketch:type="MSShapeGroup" mask="url(#mask-2)"></path>
                <path d="M97.3057711,41.4269403 L95.5500498,41.4269403 L95.5500498,43.1826617 C95.5500498,43.7791791 95.0664677,44.26301 94.4697015,44.26301 C93.8731841,44.26301 93.3893532,43.7791791 93.3893532,43.1826617 L93.3893532,41.4269403 L91.6336318,41.4269403 C91.0371144,41.4269403 90.5532836,40.9431095 90.5532836,40.346592 C90.5532836,39.7498259 91.0371144,39.2662438 91.6336318,39.2662438 L93.3893532,39.2662438 L93.3893532,37.5105224 C93.3893532,36.9137562 93.8731841,36.4301741 94.4697015,36.4301741 C95.0664677,36.4301741 95.5500498,36.9137562 95.5500498,37.5105224 L95.5500498,39.2662438 L97.3057711,39.2662438 C97.9025373,39.2662438 98.3861194,39.7498259 98.3861194,40.346592 C98.3861194,40.9431095 97.9025373,41.4269403 97.3057711,41.4269403 M94.1241791,46.0662438 L93.5388557,46.0662438 L93.5388557,46.6513184 C93.5388557,46.8503234 93.3776617,47.0115174 93.1789055,47.0115174 C92.9799005,47.0115174 92.8187065,46.8503234 92.8187065,46.6513184 L92.8187065,46.0662438 L92.2333831,46.0662438 C92.0346269,46.0662438 91.8734328,45.9050498 91.8734328,45.7060448 C91.8734328,45.5070398 92.0346269,45.3458458 92.2333831,45.3458458 L92.8187065,45.3458458 L92.8187065,44.7607711 C92.8187065,44.5617662 92.9799005,44.4005721 93.1789055,44.4005721 C93.3776617,44.4005721 93.5388557,44.5617662 93.5388557,44.7607711 L93.5388557,45.3458458 L94.1241791,45.3458458 C94.3229353,45.3458458 94.4843781,45.5070398 94.4843781,45.7060448 C94.4843781,45.9050498 94.3229353,46.0662438 94.1241791,46.0662438 M91.3040299,43.9978358 L90.2657214,43.9978358 L90.2657214,45.0361443 C90.2657214,45.3888806 89.9796517,45.6749502 89.6269154,45.6749502 C89.2739303,45.6749502 88.9878607,45.3888806 88.9878607,45.0361443 L88.9878607,43.9978358 L87.9495522,43.9978358 C87.5968159,43.9978358 87.3107463,43.7117662 87.3107463,43.3587811 C87.3107463,43.0060448 87.5968159,42.7199751 87.9495522,42.7199751 L88.9878607,42.7199751 L88.9878607,41.6816667 C88.9878607,41.3286816 89.2739303,41.0426119 89.6269154,41.0426119 C89.9796517,41.0426119 90.2657214,41.3286816 90.2657214,41.6816667 L90.2657214,42.7199751 L91.3040299,42.7199751 C91.6570149,42.7199751 91.9430846,43.0060448 91.9430846,43.3587811 C91.9430846,43.7117662 91.6570149,43.9978358 91.3040299,43.9978358 M93.0801493,35.4796766 C89.4983085,35.4796766 86.5948259,38.3831592 86.5948259,41.965 C86.5948259,45.546592 89.4983085,48.4500746 93.0801493,48.4500746 C96.6617413,48.4500746 99.5652239,45.546592 99.5652239,41.965 C99.5652239,38.3831592 96.6617413,35.4796766 93.0801493,35.4796766" id="Fill-50" fill="#1B75BB" sketch:type="MSShapeGroup" mask="url(#mask-2)"></path>
                <path d="M13.5712438,42.6349502 C12.4672637,42.6349502 11.5722388,41.7399254 11.5722388,40.6359453 C11.5722388,39.5319652 12.4672637,38.6371891 13.5712438,38.6371891 C14.6752239,38.6371891 15.5702488,39.5319652 15.5702488,40.6359453 C15.5702488,41.7399254 14.6752239,42.6349502 13.5712438,42.6349502 M12.2112935,46.5493781 C11.1993532,46.5493781 10.3789552,45.7289801 10.3789552,44.7170398 C10.3789552,43.7050995 11.1993532,42.8847015 12.2112935,42.8847015 C13.2232338,42.8847015 14.0436318,43.7050995 14.0436318,44.7170398 C14.0436318,45.7289801 13.2232338,46.5493781 12.2112935,46.5493781 M10.0175124,43.4399254 C9.89114428,43.4399254 9.78865672,43.3374378 9.78865672,43.2110697 C9.78865672,43.0844527 9.89114428,42.9819652 10.0175124,42.9819652 C10.1441294,42.9819652 10.2466169,43.0844527 10.2466169,43.2110697 C10.2466169,43.3374378 10.1441294,43.4399254 10.0175124,43.4399254 M7.79661692,46.6605721 C6.72323383,46.6605721 5.85333333,45.7904229 5.85333333,44.7170398 C5.85333333,43.6439055 6.72323383,42.7737562 7.79661692,42.7737562 C8.87,42.7737562 9.7399005,43.6439055 9.7399005,44.7170398 C9.7399005,45.7904229 8.87,46.6605721 7.79661692,46.6605721 M4.46527363,40.6359453 C4.46527363,39.5319652 5.36029851,38.6371891 6.46427861,38.6371891 C7.56825871,38.6371891 8.46303483,39.5319652 8.46303483,40.6359453 C8.46303483,41.7399254 7.56825871,42.6349502 6.46427861,42.6349502 C5.36029851,42.6349502 4.46527363,41.7399254 4.46527363,40.6359453 M8.8819403,42.1881841 C8.8819403,42.3200249 8.77497512,42.4267413 8.64338308,42.4267413 C8.51154229,42.4267413 8.40482587,42.3200249 8.40482587,42.1881841 C8.40482587,42.0563433 8.51154229,41.9496269 8.64338308,41.9496269 C8.77497512,41.9496269 8.8819403,42.0563433 8.8819403,42.1881841 M10.6491045,40.6359453 C10.6491045,40.5210199 10.7423881,40.4277363 10.8575622,40.4277363 C10.9724876,40.4277363 11.0657711,40.5210199 11.0657711,40.6359453 C11.0657711,40.7511194 10.9724876,40.8441542 10.8575622,40.8441542 C10.7423881,40.8441542 10.6491045,40.7511194 10.6491045,40.6359453 M8.97646766,40.6359453 C8.97646766,40.5210199 9.06975124,40.4277363 9.18467662,40.4277363 C9.29985075,40.4277363 9.39288557,40.5210199 9.39288557,40.6359453 C9.39288557,40.7511194 9.29985075,40.8441542 9.18467662,40.8441542 C9.06975124,40.8441542 8.97646766,40.7511194 8.97646766,40.6359453 M9.98965174,40.9695274 C10.4341791,40.9695274 10.7943781,41.3299751 10.7943781,41.7745025 C10.7943781,42.2190299 10.4341791,42.5792289 9.98965174,42.5792289 C9.54512438,42.5792289 9.18467662,42.2190299 9.18467662,41.7745025 C9.18467662,41.3299751 9.54512438,40.9695274 9.98965174,40.9695274 M11.5931343,42.2185323 C11.5931343,42.3334577 11.4998507,42.4267413 11.3849254,42.4267413 C11.27,42.4267413 11.1767164,42.3334577 11.1767164,42.2185323 C11.1767164,42.103607 11.27,42.0103234 11.3849254,42.0103234 C11.4998507,42.0103234 11.5931343,42.103607 11.5931343,42.2185323 M10.1289552,36.2217662 C11.1560697,36.2217662 11.9889055,37.054602 11.9889055,38.0817164 C11.9889055,39.1090796 11.1560697,39.9419154 10.1289552,39.9419154 C9.10159204,39.9419154 8.26875622,39.1090796 8.26875622,38.0817164 C8.26875622,37.054602 9.10159204,36.2217662 10.1289552,36.2217662 M10.0177612,34.9996269 C6.30706468,34.9996269 3.29885572,38.0078358 3.29885572,41.7185323 C3.29885572,45.4292289 6.30706468,48.4371891 10.0177612,48.4371891 C13.7284577,48.4371891 16.7364179,45.4292289 16.7364179,41.7185323 C16.7364179,38.0078358 13.7284577,34.9996269 10.0177612,34.9996269" id="Fill-51" fill="#1B75BB" sketch:type="MSShapeGroup" mask="url(#mask-2)"></path>
                <path d="M19.3566915,40.5416667 C19.3566915,40.5416667 17.8482338,41.4583333 17.0830597,39.3560945 C17.0830597,39.3560945 14.0964925,35.0267413 10.6875373,35.316791 C10.6875373,35.316791 14.7412687,35.4983831 16.3763433,39.5981343 C16.3763433,39.5981343 18.24699,42.0672886 19.3566915,40.5416667" id="Fill-52" fill="#1B75BB" sketch:type="MSShapeGroup" mask="url(#mask-2)"></path>
                <path d="M19.4428607,37.1129104 C19.6625124,36.4330597 19.5572886,35.456194 19.5572886,35.456194 L21.2284328,35.9945025 C21.3274378,36.5750995 20.8883831,37.7293284 20.8883831,37.7293284 L19.4428607,37.1129104 Z M19.9749502,39.5987313 L18.6013184,38.7489801 C19.0189801,38.2673881 19.3164925,37.4743532 19.3164925,37.4743532 L20.7468408,38.0974876 C20.3993284,39.1039552 19.9749502,39.5987313 19.9749502,39.5987313 L19.9749502,39.5987313 Z M17.4256965,39.6119154 L18.2923632,39.0019652 L19.6259453,39.8778358 C18.5107711,41.1564428 17.4256965,39.6119154 17.4256965,39.6119154 L17.4256965,39.6119154 Z M18.9605224,34.9435075 C20.1926119,37.9288308 17.1814179,39.4288308 17.1814179,39.4288308 C17.5000746,40.4803234 18.4065423,40.6064428 18.4065423,40.6064428 C20.9841542,40.8733582 21.6794279,35.8671393 21.6794279,35.8671393 L18.9605224,34.9435075 Z" id="Fill-53" fill="#1B75BB" sketch:type="MSShapeGroup" mask="url(#mask-2)"></path>
                <path d="M209.241567,48.1214428 L208.611468,48.1214428 L208.611468,47.8938308 L210.145547,47.8938308 L210.145547,48.1214428 L209.512214,48.1214428 L209.512214,49.9662189 L209.241567,49.9662189 L209.241567,48.1214428 Z" id="Fill-54" fill="#221F20" sketch:type="MSShapeGroup" mask="url(#mask-2)"></path>
                <path id="Fill-55" fill="#221F20" sketch:type="MSShapeGroup" mask="url(#mask-2)" d="M210.296343,50 C210.191866,50 210.117985,49.9171642 210.117985,49.8064677 C210.117985,49.6955224 210.194851,49.6126866 210.302313,49.6126866 C210.410025,49.6126866 210.483905,49.6925373 210.483905,49.8064677 C210.483905,49.9171642 210.410025,50 210.299328,50 L210.296343,50 Z"></path>
                <path d="M212.574502,49.0562438 C212.55908,48.7701741 212.540672,48.4166915 212.540672,48.1614677 L212.534701,48.1614677 C212.460821,48.4012687 212.377736,48.6656965 212.273259,48.9485323 L211.907338,49.954005 L211.704353,49.954005 L211.366294,48.9669403 C211.267786,48.6749005 211.187935,48.4074876 211.129478,48.1614677 L211.123259,48.1614677 C211.117289,48.4196766 211.101866,48.7671891 211.083458,49.0776368 L211.027985,49.966194 L210.77301,49.966194 L210.917289,47.8940547 L211.258582,47.8940547 L211.612065,48.8962935 C211.698383,49.1515174 211.766045,49.3821144 211.821517,49.5972886 L211.827239,49.5972886 C211.882711,49.3880846 211.956592,49.1577363 212.048881,48.8962935 L212.417537,47.8940547 L212.75908,47.8940547 L212.888184,49.966194 L212.623507,49.966194 L212.574502,49.0562438 Z" id="Fill-56" fill="#221F20" sketch:type="MSShapeGroup" mask="url(#mask-2)"></path>
                <path d="M120.878781,26.4487313 C121.907388,26.4487313 122.791468,25.795995 123.53102,24.4897761 C124.270572,23.1840547 124.640473,21.6009701 124.640473,19.7400249 C124.640473,18.6076866 124.403408,17.79301 123.929776,17.2957463 C123.455647,16.7992289 122.889726,16.5504726 122.23102,16.5504726 C120.924801,16.5504726 119.922562,17.2815672 119.223308,18.7432587 C118.524055,20.2054478 118.174801,21.6989801 118.174801,23.2243532 C118.174801,24.3109204 118.44893,25.1198756 118.998184,25.6512189 C119.546692,26.1828109 120.173806,26.4487313 120.878781,26.4487313 L120.878781,26.4487313 Z M119.526791,14.2795771 C120.532015,13.355199 121.433507,12.7340547 122.23102,12.4161443 C123.028532,12.0984826 123.987488,11.9395274 125.108383,11.9395274 C127.17704,11.9395274 128.763358,12.6270896 129.86709,14.0022139 C130.970323,15.3775871 131.522313,17.2325622 131.522313,19.5666418 C131.522313,22.6870398 130.69296,25.4086816 129.034751,27.7315672 C127.376542,30.054204 125.282015,31.2156468 122.75092,31.2156468 C120.173806,31.2156468 118.226542,30.245 116.909129,28.3034577 L111.214602,48.6303234 L103.50092,48.6303234 L113.399677,11.9188806 L119.917587,11.9188806 L119.457388,14.2101741 L119.526791,14.2795771 Z" id="Fill-58" fill="#1B75BB" sketch:type="MSShapeGroup" mask="url(#mask-2)"></path>
                <path d="M143.873284,26.4140299 C145.111095,26.4140299 146.093682,25.7408955 146.821294,24.3943781 C147.548657,23.0483582 147.912587,21.5545771 147.912587,19.9135323 C147.912587,18.7232338 147.635721,17.8881592 147.08199,17.4085572 C146.52801,16.929204 145.914577,16.6891542 145.241443,16.6891542 C143.840945,16.6891542 142.790199,17.3650249 142.08995,18.7172637 C141.389453,20.0695025 141.039453,21.450597 141.039453,22.8605473 C141.039453,23.8774627 141.313582,24.7239801 141.861841,25.3998507 C142.4101,26.0759701 143.080498,26.4140299 143.873284,26.4140299 M145.771791,11.939403 C149.065323,11.939403 151.46607,12.7714925 152.974527,14.4356716 C154.482736,16.099602 155.236716,18.0471144 155.236716,20.2774627 C155.236716,21.9762189 154.803134,23.7040796 153.936716,25.4605473 C153.069801,27.2175124 151.766567,28.609801 150.027512,29.638408 C148.288209,30.6670149 146.147164,31.181194 143.604876,31.181194 C140.380746,31.181194 137.999652,30.3866667 136.463085,28.7976119 C134.925771,27.2085572 134.157612,25.2297015 134.157612,22.8605473 C134.157612,20.9998507 134.616816,19.2025871 135.535473,17.4692537 C136.454378,15.7356716 137.786219,14.3809453 139.531244,13.4043284 C141.276269,12.4277114 143.356368,11.939403 145.771791,11.939403" id="Fill-59" fill="#1B75BB" sketch:type="MSShapeGroup" mask="url(#mask-2)"></path>
                <path d="M177.32097,16.7584577 L170.716741,17.4691542 C170.519975,16.3597015 169.693607,15.8052239 168.237637,15.8052239 C167.382164,15.8052239 166.735149,15.9609453 166.296095,16.2731343 C165.856542,16.5853234 165.637388,16.9492537 165.637388,17.3651741 C165.637388,17.7930348 165.830672,18.1482587 166.218234,18.4313433 C166.605299,18.7146766 167.642363,18.9773632 169.329677,19.2201493 C172.045348,19.6246269 173.85107,20.2340796 174.746841,21.0487562 C175.642363,21.8636816 176.090373,22.9529851 176.090373,24.3164179 C176.090373,26.2119403 175.212015,27.829602 173.455547,29.1701493 C171.698582,30.5109453 169.023209,31.1810945 165.429428,31.1810945 C162.493856,31.1810945 160.344353,30.7532338 158.98092,29.8982587 C157.61699,29.0432836 156.819726,27.6333333 156.588632,25.6686567 L163.557289,25.0619403 C163.857786,26.5527363 164.839876,27.29801 166.504055,27.29801 C167.278184,27.29801 167.962761,27.130597 168.558284,26.7952736 C169.153308,26.460199 169.45107,25.980597 169.45107,25.3564677 C169.45107,24.7905473 169.237139,24.409204 168.809527,24.2124378 C168.381915,24.0161692 167.572711,23.8253731 166.382662,23.6402985 C163.643856,23.2129353 161.789129,22.5656716 160.818483,21.699005 C159.847338,20.8320896 159.362015,19.7400498 159.362015,18.4226368 C159.362015,17.34801 159.725945,16.2965174 160.454303,15.2676617 C161.182413,14.2393035 162.283159,13.4276119 163.756294,12.8320896 C165.229925,12.2370647 167.041617,11.9395522 169.190871,11.9395522 C171.652562,11.9395522 173.538881,12.3007463 174.850821,13.0228856 C176.162264,13.7452736 176.985647,14.9902985 177.32097,16.7584577" id="Fill-60" fill="#1B75BB" sketch:type="MSShapeGroup" mask="url(#mask-2)"></path>
                <path d="M186.395075,25.5796766 L188.438856,18.1376368 L182.462985,18.1376368 C182.287612,18.7849005 182.112239,19.4324129 181.936617,20.0796766 C181.525672,21.5973383 181.119701,23.1177363 180.683881,24.6281841 C180.505522,25.2470896 180.306269,25.9117662 180.306269,26.5612687 C180.288856,27.2555473 180.421692,27.9535572 180.707015,28.5873881 C180.802289,28.7990796 180.914229,29.0030597 181.041592,29.1968408 C181.204279,29.4443532 181.389602,29.676194 181.59209,29.8921144 C182.456766,30.8115174 183.575672,31.2717164 184.956269,31.2717164 L207.194826,31.2717164 L212.664229,25.5796766 L186.395075,25.5796766 Z" id="Fill-61" fill="#1B75BB" sketch:type="MSShapeGroup" mask="url(#mask-2)"></path>
                <path d="M185.345274,7.20711443 L191.394527,7.20711443 L190.295522,11.2827363 L184.2699,11.2827363 L185.345274,7.20711443 Z" id="Fill-62" fill="#1B75BB" sketch:type="MSShapeGroup" mask="url(#mask-2)"></path>
                <path d="M181.589577,11.818209 L203.811468,11.818209 L198.513209,17.5112438 L179.396045,17.5112438 L181.589577,11.818209 Z" id="Fill-63" fill="#1B75BB" sketch:type="MSShapeGroup" mask="url(#mask-2)"></path>
            </g>
        </g>
    </g>
</svg>